<?xml version="1.0" encoding="UTF-8"?>
<svg width="256px" height="256px" viewBox="0 0 256 256" version="1.1" xmlns="http://www.w3.org/2000/svg" xmlns:xlink="http://www.w3.org/1999/xlink">
    <!-- Generator: Sketch 58 (84663) - https://sketch.com -->
    <title>NokiaLarge</title>
    <desc>Created with Sketch.</desc>
    <g id="NokiaLarge" stroke="none" stroke-width="1" fill="none" fill-rule="evenodd">
        <rect fill="#1C4598" x="0" y="0" width="256" height="256"></rect>
        <g id="Nokia_wordmark" transform="translate(32.000000, 111.000000)" fill="#FFFFFF" fill-rule="nonzero">
            <path d="M9.2448,31.9632 L0,31.9632 L0,0.5232 L15.9888,0.5232 L34.332,23.9952 L34.332,0.5232 L43.5768,0.5232 L43.5768,31.9632 L27.912,31.9632 L9.2448,8.0904 L9.2448,31.9632 M87.8088,22.2408 C87.8088,26.6112 87.036,28.1184 85.7568,29.5632 C83.796,31.7136 80.9424,32.3616 75.444,32.3616 L59.6592,32.3616 C54.1608,32.3616 51.3024,31.7136 49.344,29.5632 C48.0648,28.1184 47.292,26.6112 47.292,22.2408 L47.292,10.1208 C47.292,5.7528 48.0648,4.248 49.344,2.8008 C51.3048,0.648 54.1608,0 59.6592,0 L75.444,0 C80.9424,0 83.796,0.648 85.7568,2.8008 C87.036,4.248 87.8088,5.7528 87.8088,10.1208 L87.8088,22.2408 M75.0552,24.396 C77.1672,24.396 77.9112,24.2712 78.4176,23.8104 C78.8904,23.3808 79.0992,22.8264 79.0992,20.9784 L79.0992,11.3832 C79.0992,9.5352 78.8904,8.9856 78.4176,8.5536 C77.9112,8.0904 77.1672,7.968 75.0552,7.968 L60.0456,7.968 C57.9336,7.968 57.1896,8.0904 56.6856,8.5536 C56.2104,8.9856 56.0016,9.5352 56.0016,11.3832 L56.0016,20.9784 C56.0016,22.8264 56.2104,23.3808 56.6856,23.8104 C57.1896,24.2712 57.9336,24.396 60.0456,24.396 L75.0552,24.396 L75.0552,24.396 M101.244,0.5232 L101.244,31.9632 L91.584,31.9632 L91.584,0.5232 L101.244,0.5232 M117.564,0.5232 L130.3176,0.5232 L113.1048,15.228 L132.5184,31.9632 L118.872,31.9632 L101.244,15.5664 L117.564,0.5232 M134.2992,0.5232 L143.9616,0.5232 L143.9616,31.9632 L134.2992,31.9632 M180.7944,31.9632 L177.936,26.4864 L159.2424,26.4864 L156.4176,31.9608 L145.7448,31.9608 L162.8688,0.5232 L174.8784,0.5232 L192,31.9632 L180.7944,31.9632 M162.6,19.6584 L174.612,19.6584 L168.6048,8.2752 L162.6,19.6584" id="Shape"></path>
        </g>
    </g>
</svg>